<svg width="39" height="39" viewBox="0 0 39 39" fill="none" xmlns="http://www.w3.org/2000/svg">
<path d="M32.4243 30.063L27.2894 24.9281C28.8456 22.8909 29.6991 20.4198 29.6995 17.8123C29.6995 14.67 28.4756 11.7155 26.2533 9.49361C24.0314 7.27169 21.0773 6.04785 17.9346 6.04785C14.7923 6.04785 11.8379 7.27169 9.61594 9.49361C5.02906 14.0809 5.02906 21.5445 9.61594 26.131C11.8379 28.3533 14.7923 29.5771 17.9346 29.5771C20.5421 29.5768 23.0132 28.7233 25.0504 27.167L30.1854 32.302C30.4942 32.6112 30.8997 32.7658 31.3048 32.7658C31.7099 32.7658 32.1154 32.6112 32.4243 32.302C33.0428 31.6839 33.0428 30.6811 32.4243 30.063ZM11.8549 23.892C8.50266 20.5398 8.50304 15.0851 11.8549 11.7325C13.4788 10.109 15.6381 9.21452 17.9346 9.21452C20.2315 9.21452 22.3905 10.109 24.0144 11.7325C25.6383 13.3565 26.5328 15.5158 26.5328 17.8123C26.5328 20.1092 25.6383 22.2681 24.0144 23.892C22.3905 25.516 20.2315 26.4105 17.9346 26.4105C15.6381 26.4105 13.4788 25.516 11.8549 23.892Z" fill="#032E15"/>
</svg>
