<svg width="49" height="49" viewBox="0 0 49 49" fill="none" xmlns="http://www.w3.org/2000/svg">
<path opacity="0.2" d="M42.7344 24.1387C42.7344 27.6987 41.6787 31.1789 39.7008 34.1389C37.723 37.099 34.9118 39.4061 31.6227 40.7685C28.3336 42.1309 24.7144 42.4873 21.2228 41.7928C17.7311 41.0983 14.5238 39.3839 12.0065 36.8666C9.48912 34.3493 7.77478 31.142 7.08025 27.6503C6.38571 24.1586 6.74217 20.5394 8.10455 17.2504C9.46693 13.9613 11.774 11.1501 14.7341 9.17222C17.6942 7.19435 21.1743 6.13867 24.7344 6.13867C29.5083 6.13867 34.0867 8.03509 37.4623 11.4107C40.838 14.7864 42.7344 19.3648 42.7344 24.1387Z" fill="#032E15"/>
<path d="M24.7344 4.63867C20.8776 4.63867 17.1075 5.78233 13.9008 7.92501C10.694 10.0677 8.19464 13.1132 6.71873 16.6763C5.24282 20.2395 4.85666 24.1603 5.60907 27.9429C6.36148 31.7256 8.21868 35.2001 10.9458 37.9273C13.6729 40.6544 17.1475 42.5116 20.9301 43.264C24.7128 44.0164 28.6336 43.6302 32.1967 42.1543C35.7599 40.6784 38.8054 38.1791 40.948 34.9723C43.0907 31.7655 44.2344 27.9954 44.2344 24.1387C44.2284 18.9688 42.1721 14.0123 38.5164 10.3567C34.8607 6.701 29.9043 4.64463 24.7344 4.63867ZM41.2344 24.1387C41.2357 25.6604 41.0256 27.1748 40.61 28.6387H33.3894C33.8494 25.6563 33.8494 22.621 33.3894 19.6387H40.61C41.0256 21.1025 41.2357 22.617 41.2344 24.1387ZM19.8594 31.6387H29.6094C28.6488 34.786 26.9813 37.6721 24.7344 40.0762C22.4883 37.6714 20.8209 34.7856 19.8594 31.6387ZM19.1281 28.6387C18.6131 25.6608 18.6131 22.6166 19.1281 19.6387H30.3556C30.8706 22.6166 30.8706 25.6608 30.3556 28.6387H19.1281ZM8.23438 24.1387C8.23308 22.617 8.44321 21.1025 8.85876 19.6387H16.0794C15.6194 22.621 15.6194 25.6563 16.0794 28.6387H8.85876C8.44321 27.1748 8.23308 25.6604 8.23438 24.1387ZM29.6094 16.6387H19.8594C20.8199 13.4913 22.4874 10.6053 24.7344 8.20117C26.9805 10.6059 28.6479 13.4917 29.6094 16.6387ZM39.4213 16.6387H32.7425C31.9007 13.5504 30.482 10.6493 28.5613 8.08867C30.882 8.64616 33.0547 9.69888 34.9305 11.1747C36.8063 12.6504 38.3407 14.5144 39.4288 16.6387H39.4213ZM20.9075 8.08867C18.9868 10.6493 17.568 13.5504 16.7263 16.6387H10.04C11.128 14.5144 12.6625 12.6504 14.5383 11.1747C16.4141 9.69888 18.5868 8.64616 20.9075 8.08867ZM10.04 31.6387H16.7263C17.568 34.727 18.9868 37.628 20.9075 40.1887C18.5868 39.6312 16.4141 38.5785 14.5383 37.1027C12.6625 35.6269 11.128 33.763 10.04 31.6387ZM28.5613 40.1887C30.482 37.628 31.9007 34.727 32.7425 31.6387H39.4288C38.3407 33.763 36.8063 35.6269 34.9305 37.1027C33.0547 38.5785 30.882 39.6312 28.5613 40.1887Z" fill="#032E15"/>
</svg>
