<svg width="48" height="48" viewBox="0 0 48 48" fill="none" xmlns="http://www.w3.org/2000/svg">
<path opacity="0.2" d="M43.5 19.125C43.5 31.5 24 42 24 42C24 42 4.5 31.5 4.5 19.125C4.5 16.4397 5.56674 13.8643 7.46554 11.9655C9.36435 10.0667 11.9397 9 14.625 9C18.8606 9 22.4888 11.3081 24 15C25.5112 11.3081 29.1394 9 33.375 9C36.0603 9 38.6357 10.0667 40.5345 11.9655C42.4333 13.8643 43.5 16.4397 43.5 19.125Z" fill="#FCFCFC" fill-opacity="0.7"/>
<path d="M33.375 7.5C29.5031 7.5 26.1131 9.165 24 11.9794C21.8869 9.165 18.4969 7.5 14.625 7.5C11.5429 7.50347 8.58808 8.72936 6.40872 10.9087C4.22936 13.0881 3.00347 16.0429 3 19.125C3 32.25 22.4606 42.8737 23.2894 43.3125C23.5078 43.43 23.752 43.4915 24 43.4915C24.248 43.4915 24.4922 43.43 24.7106 43.3125C25.5394 42.8737 45 32.25 45 19.125C44.9965 16.0429 43.7706 13.0881 41.5913 10.9087C39.4119 8.72936 36.4571 7.50347 33.375 7.5ZM24 40.275C20.5763 38.28 6 29.1919 6 19.125C6.00298 16.8384 6.91264 14.6463 8.52949 13.0295C10.1463 11.4126 12.3384 10.503 14.625 10.5C18.2719 10.5 21.3337 12.4425 22.6125 15.5625C22.7255 15.8376 22.9178 16.0729 23.1648 16.2385C23.4119 16.4041 23.7026 16.4925 24 16.4925C24.2974 16.4925 24.5881 16.4041 24.8352 16.2385C25.0822 16.0729 25.2745 15.8376 25.3875 15.5625C26.6662 12.4369 29.7281 10.5 33.375 10.5C35.6616 10.503 37.8537 11.4126 39.4705 13.0295C41.0874 14.6463 41.997 16.8384 42 19.125C42 29.1769 27.42 38.2781 24 40.275Z" fill="#FCFCFC" fill-opacity="0.7"/>
</svg>
