<svg width="49" height="49" viewBox="0 0 49 49" fill="none" xmlns="http://www.w3.org/2000/svg">
<path opacity="0.2" d="M44.4844 19.2637C44.4844 31.6387 24.9844 42.1387 24.9844 42.1387C24.9844 42.1387 5.48438 31.6387 5.48438 19.2637C5.48438 16.5784 6.55111 14.003 8.44992 12.1042C10.3487 10.2054 12.9241 9.13867 15.6094 9.13867C19.845 9.13867 23.4731 11.4468 24.9844 15.1387C26.4956 11.4468 30.1238 9.13867 34.3594 9.13867C37.0447 9.13867 39.62 10.2054 41.5188 12.1042C43.4176 14.003 44.4844 16.5784 44.4844 19.2637Z" fill="#032E15"/>
<path d="M34.3594 7.63867C30.4875 7.63867 27.0975 9.30367 24.9844 12.118C22.8713 9.30367 19.4812 7.63867 15.6094 7.63867C12.5273 7.64215 9.57245 8.86803 7.3931 11.0474C5.21374 13.2268 3.98785 16.1816 3.98438 19.2637C3.98438 32.3887 23.445 43.0124 24.2738 43.4512C24.4922 43.5687 24.7363 43.6302 24.9844 43.6302C25.2324 43.6302 25.4766 43.5687 25.695 43.4512C26.5237 43.0124 45.9844 32.3887 45.9844 19.2637C45.9809 16.1816 44.755 13.2268 42.5757 11.0474C40.3963 8.86803 37.4415 7.64215 34.3594 7.63867ZM24.9844 40.4137C21.5606 38.4187 6.98438 29.3305 6.98438 19.2637C6.98735 16.9771 7.89701 14.785 9.51387 13.1682C11.1307 11.5513 13.3228 10.6416 15.6094 10.6387C19.2563 10.6387 22.3181 12.5812 23.5969 15.7012C23.7099 15.9763 23.9021 16.2116 24.1492 16.3772C24.3962 16.5428 24.687 16.6312 24.9844 16.6312C25.2818 16.6312 25.5725 16.5428 25.8196 16.3772C26.0666 16.2116 26.2589 15.9763 26.3719 15.7012C27.6506 12.5755 30.7125 10.6387 34.3594 10.6387C36.646 10.6416 38.838 11.5513 40.4549 13.1682C42.0717 14.785 42.9814 16.9771 42.9844 19.2637C42.9844 29.3155 28.4044 38.4168 24.9844 40.4137Z" fill="#032E15"/>
</svg>
