<svg width="49" height="49" viewBox="0 0 49 49" fill="none" xmlns="http://www.w3.org/2000/svg">
<path opacity="0.2" d="M26.7112 28.1621C20.7262 18.1853 28.7062 8.21025 45.6656 9.20775C46.6725 26.1671 36.6881 34.149 26.7112 28.1621ZM3.78371 16.6871C3.07121 28.8015 10.1981 34.4996 17.3231 30.2265C21.5981 23.1015 15.8981 15.9746 3.78371 16.6871Z" fill="#032E15"/>
<path d="M47.165 9.11767C47.1436 8.75071 46.9881 8.40439 46.7282 8.14446C46.4683 7.88454 46.122 7.7291 45.755 7.70767C36.05 7.14517 28.2575 10.0964 24.9087 15.6239C22.6962 19.2764 22.7 23.7164 24.8787 27.9502C23.6399 29.4238 22.7337 31.1474 22.2219 33.0033L19.1712 29.9508C20.6375 26.8889 20.5812 23.6958 18.9837 21.0464C16.5012 16.9627 10.7881 14.7633 3.69499 15.1889C3.32802 15.2104 2.9817 15.3658 2.72178 15.6257C2.46185 15.8856 2.30642 16.232 2.28499 16.5989C1.86686 23.692 4.05874 29.4052 8.14436 31.8802C9.49498 32.7046 11.047 33.1399 12.6294 33.1383C14.1629 33.1194 15.6726 32.7561 17.0469 32.0752L21.7344 36.7627V42.1383C21.7344 42.5361 21.8924 42.9177 22.1737 43.199C22.455 43.4803 22.8365 43.6383 23.2344 43.6383C23.6322 43.6383 24.0137 43.4803 24.295 43.199C24.5763 42.9177 24.7344 42.5361 24.7344 42.1383V36.6089C24.7277 34.2226 25.5398 31.9062 27.035 30.0464C28.9643 31.0547 31.1039 31.5942 33.2806 31.6214C35.3851 31.6282 37.4505 31.0533 39.2487 29.9602C44.7762 26.6152 47.735 18.8227 47.165 9.11767ZM16.8706 27.6521L12.2937 23.077C12.0101 22.8076 11.6325 22.6596 11.2414 22.6646C10.8502 22.6696 10.4765 22.8273 10.1999 23.1039C9.92332 23.3805 9.76571 23.7542 9.7607 24.1453C9.75569 24.5365 9.90368 24.9141 10.1731 25.1977L14.75 29.7745C12.9481 30.3708 11.2006 30.2227 9.69874 29.3133C6.82249 27.5714 5.19499 23.4483 5.23436 18.1383C10.5425 18.0914 14.6675 19.7264 16.4094 22.6027C17.3187 24.1045 17.4669 25.852 16.8706 27.6521ZM37.6944 27.397C35.1819 28.9177 32.2287 29.0339 29.2287 27.772L39.2956 17.7033C39.5771 17.4221 39.7353 17.0406 39.7355 16.6427C39.7356 16.2448 39.5778 15.8632 39.2966 15.5817C39.0153 15.3003 38.6338 15.1421 38.236 15.1419C37.8381 15.1417 37.4565 15.2996 37.175 15.5808L27.1062 25.6383C25.8387 22.6383 25.9531 19.6833 27.4812 17.1727C30.095 12.8602 36.2937 10.4602 44.2306 10.642C44.4106 18.577 42.0106 24.7833 37.6944 27.397Z" fill="#032E15"/>
</svg>
