<svg width="48" height="48" viewBox="0 0 48 48" fill="none" xmlns="http://www.w3.org/2000/svg">
<path opacity="0.2" d="M25.9768 28.0235C19.9918 18.0466 27.9718 8.07158 44.9312 9.06908C45.9381 26.0285 35.9537 34.0103 25.9768 28.0235ZM3.04933 16.5485C2.33683 28.6628 9.4637 34.361 16.5887 30.0878C20.8637 22.9628 15.1637 15.836 3.04933 16.5485Z" fill="#FCFCFC" fill-opacity="0.7"/>
<path d="M46.4306 8.979C46.4092 8.61204 46.2537 8.26572 45.9938 8.00579C45.7339 7.74586 45.3876 7.59043 45.0206 7.569C35.3156 7.0065 27.5231 9.95775 24.1744 15.4853C21.9619 19.1378 21.9656 23.5778 24.1444 27.8115C22.9056 29.2852 21.9993 31.0087 21.4875 32.8646L18.4369 29.8121C19.9031 26.7503 19.8469 23.5571 18.2494 20.9078C15.7669 16.824 10.0537 14.6246 2.96061 15.0503C2.59365 15.0717 2.24733 15.2271 1.9874 15.487C1.72748 15.747 1.57204 16.0933 1.55061 16.4603C1.13249 23.5534 3.32436 29.2665 7.40999 31.7415C8.7606 32.5659 10.3127 33.0013 11.895 32.9996C13.4285 32.9807 14.9383 32.6174 16.3125 31.9365L21 36.624V41.9996C21 42.3974 21.158 42.779 21.4393 43.0603C21.7206 43.3416 22.1022 43.4996 22.5 43.4996C22.8978 43.4996 23.2793 43.3416 23.5606 43.0603C23.842 42.779 24 42.3974 24 41.9996V36.4702C23.9933 34.0839 24.8054 31.7675 26.3006 29.9077C28.2299 30.916 30.3696 31.4556 32.5462 31.4828C34.6507 31.4895 36.7161 30.9146 38.5144 29.8215C44.0419 26.4765 47.0006 18.684 46.4306 8.979ZM16.1362 27.5134L11.5594 22.9384C11.2758 22.6689 10.8981 22.521 10.507 22.526C10.1159 22.531 9.74215 22.6886 9.46554 22.9652C9.18894 23.2418 9.03134 23.6155 9.02633 24.0066C9.02132 24.3978 9.16931 24.7754 9.43874 25.059L14.0156 29.6359C12.2137 30.2321 10.4662 30.084 8.96436 29.1746C6.08811 27.4328 4.46061 23.3096 4.49999 17.9996C9.80811 17.9528 13.9331 19.5878 15.675 22.464C16.5844 23.9659 16.7325 25.7134 16.1362 27.5134ZM36.96 27.2584C34.4475 28.779 31.4944 28.8953 28.4944 27.6334L38.5612 17.5646C38.8427 17.2834 39.0009 16.9019 39.0011 16.504C39.0013 16.1062 38.8434 15.7245 38.5622 15.4431C38.281 15.1616 37.8995 15.0034 37.5016 15.0032C37.1037 15.003 36.7221 15.1609 36.4406 15.4421L26.3719 25.4996C25.1044 22.4996 25.2187 19.5446 26.7469 17.034C29.3606 12.7215 35.5594 10.3215 43.4962 10.5034C43.6762 18.4384 41.2762 24.6446 36.96 27.2584Z" fill="#FCFCFC" fill-opacity="0.7"/>
</svg>
