<svg width="15" height="15" viewBox="0 0 15 15" fill="none" xmlns="http://www.w3.org/2000/svg">
<path opacity="0.2" d="M12.918 7.58984C12.918 8.27398 11.9434 8.79023 11.6777 9.43227C11.4217 10.0513 11.7553 11.1084 11.2522 11.6116C10.7491 12.1147 9.69195 11.7811 9.07289 12.037C8.43359 12.3028 7.91406 13.2773 7.23047 13.2773C6.54688 13.2773 6.02734 12.3028 5.38805 12.037C4.76898 11.7811 3.71187 12.1147 3.20875 11.6116C2.70562 11.1084 3.03922 10.0513 2.78328 9.43227C2.5175 8.79297 1.54297 8.27344 1.54297 7.58984C1.54297 6.90625 2.5175 6.38672 2.78328 5.74742C3.03922 5.12891 2.70562 4.07125 3.20875 3.56813C3.71187 3.065 4.76953 3.39859 5.38805 3.14266C6.03008 2.87687 6.54688 1.90234 7.23047 1.90234C7.91406 1.90234 8.43359 2.87687 9.07289 3.14266C9.69195 3.39859 10.7491 3.065 11.2522 3.56813C11.7553 4.07125 11.4217 5.12836 11.6777 5.74742C11.9434 6.38945 12.918 6.90625 12.918 7.58984Z" fill="url(#paint0_linear_17025_273)" fill-opacity="0.6"/>
<path d="M12.5822 6.21281C12.376 5.99734 12.1627 5.77531 12.0823 5.58008C12.008 5.40125 12.0036 5.10484 11.9992 4.81773C11.991 4.28398 11.9823 3.67914 11.5617 3.25859C11.1412 2.83805 10.5363 2.8293 10.0026 2.82109C9.71547 2.81672 9.41906 2.81234 9.24023 2.73797C9.04555 2.65758 8.82297 2.4443 8.6075 2.23812C8.23016 1.87555 7.80141 1.46484 7.23047 1.46484C6.65953 1.46484 6.23133 1.87555 5.85344 2.23812C5.63797 2.4443 5.41594 2.65758 5.2207 2.73797C5.04297 2.81234 4.74547 2.81672 4.45836 2.82109C3.92461 2.8293 3.31977 2.83805 2.89922 3.25859C2.47867 3.67914 2.47266 4.28398 2.46172 4.81773C2.45734 5.10484 2.45297 5.40125 2.37859 5.58008C2.2982 5.77477 2.08492 5.99734 1.87875 6.21281C1.51617 6.59016 1.10547 7.01891 1.10547 7.58984C1.10547 8.16078 1.51617 8.58898 1.87875 8.96687C2.08492 9.18234 2.2982 9.40438 2.37859 9.59961C2.45297 9.77844 2.45734 10.0748 2.46172 10.362C2.46992 10.8957 2.47867 11.5005 2.89922 11.9211C3.31977 12.3416 3.92461 12.3504 4.45836 12.3586C4.74547 12.363 5.04187 12.3673 5.2207 12.4417C5.41539 12.5221 5.63797 12.7354 5.85344 12.9416C6.23078 13.3041 6.65953 13.7148 7.23047 13.7148C7.80141 13.7148 8.22961 13.3041 8.6075 12.9416C8.82297 12.7354 9.045 12.5221 9.24023 12.4417C9.41906 12.3673 9.71547 12.363 10.0026 12.3586C10.5363 12.3504 11.1412 12.3416 11.5617 11.9211C11.9823 11.5005 11.991 10.8957 11.9992 10.362C12.0036 10.0748 12.008 9.77844 12.0823 9.59961C12.1627 9.40492 12.376 9.18234 12.5822 8.96687C12.9448 8.58953 13.3555 8.16078 13.3555 7.58984C13.3555 7.01891 12.9448 6.5907 12.5822 6.21281ZM11.9505 8.36148C11.6886 8.63492 11.4173 8.91766 11.2735 9.26492C11.1357 9.59852 11.1297 9.97969 11.1242 10.3488C11.1187 10.7316 11.1127 11.1325 10.9427 11.302C10.7726 11.4716 10.3745 11.4781 9.98945 11.4836C9.62031 11.4891 9.23914 11.4951 8.90555 11.6329C8.55828 11.7767 8.27555 12.048 8.00211 12.3099C7.72867 12.5719 7.44922 12.8398 7.23047 12.8398C7.01172 12.8398 6.73008 12.5708 6.45883 12.3099C6.18758 12.0491 5.90266 11.7767 5.55539 11.6329C5.2218 11.4951 4.84063 11.4891 4.47148 11.4836C4.08867 11.4781 3.68781 11.4721 3.51828 11.302C3.34875 11.132 3.34219 10.7338 3.33672 10.3488C3.33125 9.97969 3.32523 9.59852 3.18742 9.26492C3.04359 8.91766 2.77234 8.63492 2.51039 8.36148C2.24844 8.08805 1.98047 7.80859 1.98047 7.58984C1.98047 7.37109 2.24953 7.08945 2.51039 6.8182C2.77125 6.54695 3.04359 6.26203 3.18742 5.91477C3.32523 5.58117 3.33125 5.2 3.33672 4.83086C3.34219 4.44805 3.3482 4.04719 3.51828 3.87766C3.68836 3.70812 4.08648 3.70156 4.47148 3.69609C4.84063 3.69062 5.2218 3.68461 5.55539 3.5468C5.90266 3.40297 6.18539 3.13172 6.45883 2.86977C6.73227 2.60781 7.01172 2.33984 7.23047 2.33984C7.44922 2.33984 7.73086 2.60891 8.00211 2.86977C8.27336 3.13062 8.55828 3.40297 8.90555 3.5468C9.23914 3.68461 9.62031 3.69062 9.98945 3.69609C10.3723 3.70156 10.7731 3.70758 10.9427 3.87766C11.1122 4.04773 11.1187 4.44586 11.1242 4.83086C11.1297 5.2 11.1357 5.58117 11.2735 5.91477C11.4173 6.26203 11.6886 6.54477 11.9505 6.8182C12.2125 7.09164 12.4805 7.37109 12.4805 7.58984C12.4805 7.80859 12.2114 8.09023 11.9505 8.36148ZM9.7275 5.96781C9.76818 6.00844 9.80045 6.0567 9.82246 6.10981C9.84448 6.16292 9.85581 6.21985 9.85581 6.27734C9.85581 6.33484 9.84448 6.39177 9.82246 6.44488C9.80045 6.49799 9.76818 6.54624 9.7275 6.58687L6.665 9.64937C6.62437 9.69005 6.57612 9.72232 6.52301 9.74434C6.46989 9.76636 6.41296 9.77769 6.35547 9.77769C6.29797 9.77769 6.24104 9.76636 6.18793 9.74434C6.13482 9.72232 6.08657 9.69005 6.04594 9.64937L4.73344 8.33687C4.65134 8.25478 4.60523 8.14344 4.60523 8.02734C4.60523 7.91125 4.65134 7.79991 4.73344 7.71781C4.81553 7.63572 4.92687 7.5896 5.04297 7.5896C5.15907 7.5896 5.27041 7.63572 5.3525 7.71781L6.35547 8.72133L9.10844 5.96781C9.14907 5.92713 9.19732 5.89487 9.25043 5.87285C9.30354 5.85083 9.36047 5.8395 9.41797 5.8395C9.47546 5.8395 9.53239 5.85083 9.58551 5.87285C9.63862 5.89487 9.68687 5.92713 9.7275 5.96781Z" fill="url(#paint1_linear_17025_273)" fill-opacity="0.6"/>
<defs>
<linearGradient id="paint0_linear_17025_273" x1="7.23047" y1="1.90234" x2="7.23047" y2="13.2773" gradientUnits="userSpaceOnUse">
<stop stop-color="#032E15"/>
<stop offset="1" stop-color="#016630"/>
</linearGradient>
<linearGradient id="paint1_linear_17025_273" x1="7.23047" y1="1.46484" x2="7.23047" y2="13.7148" gradientUnits="userSpaceOnUse">
<stop stop-color="#032E15"/>
<stop offset="1" stop-color="#016630"/>
</linearGradient>
</defs>
</svg>
