<svg width="21" height="20" viewBox="0 0 21 20" fill="none" xmlns="http://www.w3.org/2000/svg">
<path d="M9.76311 1.37902C10.1107 0.553346 11.2947 0.553347 11.6423 1.37902L13.694 6.25231C13.8406 6.60039 14.172 6.83822 14.5524 6.86835L19.8778 7.29014C20.7801 7.3616 21.146 8.47401 20.4585 9.05577L16.4011 12.4894C16.1113 12.7347 15.9847 13.1195 16.0732 13.4862L17.3128 18.6201C17.5229 19.4899 16.565 20.1775 15.7925 19.7114L11.2332 16.9601C10.9075 16.7636 10.4979 16.7636 10.1723 16.9601L5.6129 19.7114C4.8404 20.1775 3.88255 19.4899 4.09257 18.6201L5.3322 13.4862C5.42074 13.1195 5.29418 12.7347 5.00437 12.4894L0.946891 9.05577C0.259438 8.47401 0.625307 7.3616 1.5276 7.29014L6.85311 6.86835C7.2335 6.83822 7.56485 6.60039 7.7114 6.25231L9.76311 1.37902Z" fill="url(#paint0_linear_625_2193)"/>
<defs>
<linearGradient id="paint0_linear_625_2193" x1="10.7027" y1="0.759766" x2="10.7027" y2="19.8619" gradientUnits="userSpaceOnUse">
<stop stop-color="#032E15"/>
<stop offset="1" stop-color="#016630"/>
</linearGradient>
</defs>
</svg>
