<svg width="48" height="48" viewBox="0 0 48 48" fill="none" xmlns="http://www.w3.org/2000/svg">
<g clip-path="url(#clip0_17025_367)">
<path opacity="0.2" d="M46.5 22.5V34.5C46.5 34.8978 46.342 35.2794 46.0607 35.5607C45.7794 35.842 45.3978 36 45 36H40.5C40.5 34.8065 40.0259 33.6619 39.182 32.818C38.3381 31.9741 37.1935 31.5 36 31.5C34.8065 31.5 33.6619 31.9741 32.818 32.818C31.9741 33.6619 31.5 34.8065 31.5 36H19.5C19.5 34.8065 19.0259 33.6619 18.182 32.818C17.3381 31.9741 16.1935 31.5 15 31.5C13.8065 31.5 12.6619 31.9741 11.818 32.818C10.9741 33.6619 10.5 34.8065 10.5 36H6C5.60218 36 5.22064 35.842 4.93934 35.5607C4.65804 35.2794 4.5 34.8978 4.5 34.5V27H34.5V22.5H46.5Z" fill="#FCFCFC" fill-opacity="0.7"/>
<path d="M47.8913 21.9375L45.2663 15.375C45.0436 14.8198 44.6593 14.3442 44.1632 14.0099C43.667 13.6756 43.082 13.4979 42.4838 13.5H36V12C36 11.6022 35.842 11.2206 35.5607 10.9393C35.2794 10.658 34.8978 10.5 34.5 10.5H6C5.20435 10.5 4.44129 10.8161 3.87868 11.3787C3.31607 11.9413 3 12.7044 3 13.5V34.5C3 35.2956 3.31607 36.0587 3.87868 36.6213C4.44129 37.1839 5.20435 37.5 6 37.5H9.1875C9.51795 38.7906 10.2686 39.9346 11.321 40.7515C12.3734 41.5684 13.6677 42.0118 15 42.0118C16.3323 42.0118 17.6266 41.5684 18.679 40.7515C19.7315 39.9346 20.482 38.7906 20.8125 37.5H30.1875C30.518 38.7906 31.2686 39.9346 32.321 40.7515C33.3734 41.5684 34.6677 42.0118 36 42.0118C37.3323 42.0118 38.6266 41.5684 39.679 40.7515C40.7315 39.9346 41.4821 38.7906 41.8125 37.5H45C45.7957 37.5 46.5587 37.1839 47.1213 36.6213C47.6839 36.0587 48 35.2956 48 34.5V22.5C48.0005 22.3072 47.9636 22.1162 47.8913 21.9375ZM36 16.5H42.4838L44.2838 21H36V16.5ZM6 13.5H33V25.5H6V13.5ZM15 39C14.4067 39 13.8266 38.8241 13.3333 38.4944C12.8399 38.1648 12.4554 37.6962 12.2284 37.1481C12.0013 36.5999 11.9419 35.9967 12.0576 35.4147C12.1734 34.8328 12.4591 34.2982 12.8787 33.8787C13.2982 33.4591 13.8328 33.1734 14.4147 33.0576C14.9967 32.9419 15.5999 33.0013 16.1481 33.2284C16.6962 33.4554 17.1648 33.8399 17.4944 34.3333C17.8241 34.8266 18 35.4067 18 36C18 36.7956 17.6839 37.5587 17.1213 38.1213C16.5587 38.6839 15.7957 39 15 39ZM30.1875 34.5H20.8125C20.482 33.2094 19.7315 32.0654 18.679 31.2485C17.6266 30.4316 16.3323 29.9882 15 29.9882C13.6677 29.9882 12.3734 30.4316 11.321 31.2485C10.2686 32.0654 9.51795 33.2094 9.1875 34.5H6V28.5H33V30.8081C32.3103 31.2068 31.7065 31.7384 31.2237 32.3722C30.7409 33.0059 30.3887 33.7291 30.1875 34.5ZM36 39C35.4067 39 34.8266 38.8241 34.3333 38.4944C33.8399 38.1648 33.4554 37.6962 33.2284 37.1481C33.0013 36.5999 32.9419 35.9967 33.0576 35.4147C33.1734 34.8328 33.4591 34.2982 33.8787 33.8787C34.2982 33.4591 34.8328 33.1734 35.4147 33.0576C35.9967 32.9419 36.5999 33.0013 37.1481 33.2284C37.6962 33.4554 38.1648 33.8399 38.4944 34.3333C38.8241 34.8266 39 35.4067 39 36C39 36.7956 38.6839 37.5587 38.1213 38.1213C37.5587 38.6839 36.7957 39 36 39ZM45 34.5H41.8125C41.4781 33.2125 40.7261 32.0723 39.6742 31.258C38.6224 30.4437 37.3302 30.0013 36 30V24H45V34.5Z" fill="#FCFCFC" fill-opacity="0.7"/>
</g>
<defs>
<clipPath id="clip0_17025_367">
<rect width="48" height="48" fill="white"/>
</clipPath>
</defs>
</svg>
