<svg width="49" height="49" viewBox="0 0 49 49" fill="none" xmlns="http://www.w3.org/2000/svg">
<g clip-path="url(#clip0_17025_92)">
<path opacity="0.2" d="M46.9844 22.6387V34.6387C46.9844 35.0365 46.8263 35.418 46.545 35.6993C46.2637 35.9806 45.8822 36.1387 45.4844 36.1387H40.9844C40.9844 34.9452 40.5103 33.8006 39.6664 32.9567C38.8224 32.1128 37.6778 31.6387 36.4844 31.6387C35.2909 31.6387 34.1463 32.1128 33.3024 32.9567C32.4585 33.8006 31.9844 34.9452 31.9844 36.1387H19.9844C19.9844 34.9452 19.5103 33.8006 18.6664 32.9567C17.8224 32.1128 16.6778 31.6387 15.4844 31.6387C14.2909 31.6387 13.1463 32.1128 12.3024 32.9567C11.4585 33.8006 10.9844 34.9452 10.9844 36.1387H6.48438C6.08655 36.1387 5.70502 35.9806 5.42371 35.6993C5.14241 35.418 4.98438 35.0365 4.98438 34.6387V27.1387H34.9844V22.6387H46.9844Z" fill="#032E15"/>
<path d="M48.3756 22.0762L45.7506 15.5137C45.5279 14.9584 45.1436 14.4829 44.6475 14.1485C44.1514 13.8142 43.5664 13.6366 42.9681 13.6387H36.4844V12.1387C36.4844 11.7408 36.3263 11.3593 36.045 11.078C35.7637 10.7967 35.3822 10.6387 34.9844 10.6387H6.48438C5.68873 10.6387 4.92566 10.9547 4.36305 11.5174C3.80045 12.08 3.48438 12.843 3.48438 13.6387V34.6387C3.48438 35.4343 3.80045 36.1974 4.36305 36.76C4.92566 37.3226 5.68873 37.6387 6.48438 37.6387H9.67188C10.0023 38.9293 10.7529 40.0732 11.8053 40.8901C12.8578 41.707 14.1521 42.1504 15.4844 42.1504C16.8166 42.1504 18.111 41.707 19.1634 40.8901C20.2158 40.0732 20.9664 38.9293 21.2969 37.6387H30.6719C31.0023 38.9293 31.7529 40.0732 32.8053 40.8901C33.8578 41.707 35.1521 42.1504 36.4844 42.1504C37.8166 42.1504 39.111 41.707 40.1634 40.8901C41.2158 40.0732 41.9664 38.9293 42.2969 37.6387H45.4844C46.28 37.6387 47.0431 37.3226 47.6057 36.76C48.1683 36.1974 48.4844 35.4343 48.4844 34.6387V22.6387C48.4849 22.4459 48.448 22.2549 48.3756 22.0762ZM36.4844 16.6387H42.9681L44.7681 21.1387H36.4844V16.6387ZM6.48438 13.6387H33.4844V25.6387H6.48438V13.6387ZM15.4844 39.1387C14.891 39.1387 14.311 38.9627 13.8177 38.6331C13.3243 38.3034 12.9398 37.8349 12.7127 37.2867C12.4857 36.7385 12.4263 36.1353 12.542 35.5534C12.6578 34.9715 12.9435 34.4369 13.3631 34.0174C13.7826 33.5978 14.3172 33.3121 14.8991 33.1963C15.481 33.0806 16.0842 33.14 16.6324 33.367C17.1806 33.5941 17.6491 33.9786 17.9788 34.472C18.3084 34.9653 18.4844 35.5453 18.4844 36.1387C18.4844 36.9343 18.1683 37.6974 17.6057 38.26C17.0431 38.8226 16.28 39.1387 15.4844 39.1387ZM30.6719 34.6387H21.2969C20.9664 33.348 20.2158 32.2041 19.1634 31.3872C18.111 30.5703 16.8166 30.1269 15.4844 30.1269C14.1521 30.1269 12.8578 30.5703 11.8053 31.3872C10.7529 32.2041 10.0023 33.348 9.67188 34.6387H6.48438V28.6387H33.4844V30.9468C32.7946 31.3455 32.1909 31.8771 31.7081 32.5108C31.2253 33.1446 30.8731 33.8678 30.6719 34.6387ZM36.4844 39.1387C35.891 39.1387 35.311 38.9627 34.8177 38.6331C34.3243 38.3034 33.9398 37.8349 33.7127 37.2867C33.4857 36.7385 33.4263 36.1353 33.542 35.5534C33.6578 34.9715 33.9435 34.4369 34.3631 34.0174C34.7826 33.5978 35.3172 33.3121 35.8991 33.1963C36.481 33.0806 37.0843 33.14 37.6324 33.367C38.1806 33.5941 38.6491 33.9786 38.9788 34.472C39.3084 34.9653 39.4844 35.5453 39.4844 36.1387C39.4844 36.9343 39.1683 37.6974 38.6057 38.26C38.0431 38.8226 37.28 39.1387 36.4844 39.1387ZM45.4844 34.6387H42.2969C41.9625 33.3512 41.2104 32.211 40.1586 31.3967C39.1068 30.5824 37.8146 30.1399 36.4844 30.1387V24.1387H45.4844V34.6387Z" fill="#032E15"/>
</g>
<defs>
<clipPath id="clip0_17025_92">
<rect width="48" height="48" fill="white" transform="translate(0.484375 0.138672)"/>
</clipPath>
</defs>
</svg>
